inDegrees=no
num_controls=7
num_derivatives=13
num_iterations=119
num_multipliers=7
num_parameters=0
num_slacks=7
num_states=26
objective=5.379509
objective_accelerations=0.684644
objective_balance=0.113032
objective_effort=0.488878
objective_height=4.030128
objective_ligament=0.062826
solver_duration=1243.891109
status=Solve_Succeeded
success=true
DataType=double
version=3
OpenSimVersion=4.4-2022-07-23-0e9fedc
endheader
time	/jointset/ground_pelvis/pelvis_tilt/value	/jointset/ground_pelvis/pelvis_tx/value	/jointset/ground_pelvis/pelvis_ty/value	/jointset/hip_l/hip_flexion_l/value	/jointset/hip_l/hip_adduction_l/value	/jointset/hip_l/hip_rotation_l/value	/jointset/back/lumbar_extension/value	/jointset/patellofemoral_l/patellar_flexion_l/value	/jointset/knee_l/knee_flexion_l/value	/jointset/knee_l/knee_adduction_l/value	/jointset/knee_l/knee_rotation_l/value	/jointset/ankle_l/ankle_angle_l/value	/jointset/subtalar_l/subtalar_angle_l/value	/jointset/ground_pelvis/pelvis_tilt/speed	/jointset/ground_pelvis/pelvis_tx/speed	/jointset/ground_pelvis/pelvis_ty/speed	/jointset/hip_l/hip_flexion_l/speed	/jointset/hip_l/hip_adduction_l/speed	/jointset/hip_l/hip_rotation_l/speed	/jointset/back/lumbar_extension/speed	/jointset/patellofemoral_l/patellar_flexion_l/speed	/jointset/knee_l/knee_flexion_l/speed	/jointset/knee_l/knee_adduction_l/speed	/jointset/knee_l/knee_rotation_l/speed	/jointset/ankle_l/ankle_angle_l/speed	/jointset/subtalar_l/subtalar_angle_l/speed	/forceset/tau_hip_flexion_l	/forceset/tau_hip_adduction_l	/forceset/tau_hip_rotation_l	/forceset/tau_knee_flexion_l	/forceset/tau_ankle_angle_l	/forceset/tau_subtalar_angle_l	/forceset/tau_lumbar_extension	lambda_cid13_p0	lambda_cid13_p1	lambda_cid13_p2	lambda_cid13_p3	lambda_cid13_p4	lambda_cid13_p5	lambda_cid14_p0	/jointset/ground_pelvis/pelvis_tilt/accel	/jointset/ground_pelvis/pelvis_tx/accel	/jointset/ground_pelvis/pelvis_ty/accel	/jointset/hip_l/hip_flexion_l/accel	/jointset/hip_l/hip_adduction_l/accel	/jointset/hip_l/hip_rotation_l/accel	/jointset/back/lumbar_extension/accel	/jointset/patellofemoral_l/patellar_flexion_l/accel	/jointset/knee_l/knee_flexion_l/accel	/jointset/knee_l/knee_adduction_l/accel	/jointset/knee_l/knee_rotation_l/accel	/jointset/ankle_l/ankle_angle_l/accel	/jointset/subtalar_l/subtalar_angle_l/accel	gamma_cid13_p0	gamma_cid13_p1	gamma_cid13_p2	gamma_cid13_p3	gamma_cid13_p4	gamma_cid13_p5	gamma_cid14_p0
0	-0.1577677400627242	0.05768247115956522	0.8979191652763143	0.3774920279260975	-0.2602830113332151	-0.2532958854515725	-0.0126506700172305	0.03223623128432599	0.03223623128433527	-0.1745328391868955	0.155754621337998	-0.04231376238535053	-0.01063668180445689	0	0	0	0	0	0	0	0	0	0	0	0	0	0.1473612578366009	-0.08210666094988771	-0.04641910616830783	-0.2950610187380278	0.3025152733464079	-0.0341380753692414	-0.09531191144998914	56.73289634799695	-0.1406651434366212	5.369259969900921	-10.88566325823138	-573.5929115556581	-75.65210608170737	-38.49961031208981	-2.866446546744821	-2.268015609238543	-1.256584448868996	16.07714016382891	-0.496215554252263	4.876591882300065	-7.662269453097328	17.28627424589907	17.28627424589988	3.42290338538918	0.99498238579882	5.172213980078234	0.6300194131981631	-5.449958409237919e-09	7.20231940778244e-07	-1.037301191688903e-07	2.685513056174923e-08	2.867692649033982e-07	1.824236283641494e-07	7.628207719256101e-08
0.01	-0.1579038392581067	0.05757088300740077	0.897857911820947	0.3782760126523331	-0.2603074703202678	-0.2530500634049173	-0.01303486993745931	0.03308285891626177	0.03308285891625098	-0.1743647193250831	0.155796662870934	-0.04206032774141988	-0.01060604201734209	-0.02708294142246062	-0.02217214552333204	-0.01221877573338158	0.1559905446472916	-0.004862036906116017	0.04890161149209406	-0.07633794801401399	0.1685065085070474	0.1685065085070404	0.0334287926168545	0.008360075879742954	0.05048246753490971	0.006110755230825243	0.1426670105208497	-0.08832264161906739	-0.04566008419510125	-0.2912862306003493	0.2968455473527198	-0.02512838821377537	-0.09109951930787411	55.20401373041511	-3.598463095593957	5.706453484331465	-10.83372500336183	-575.1465031276266	-82.2855595575101	-38.52449170611776	-2.608695412714038	-2.169985915620157	-1.199679480705407	15.23904409428332	-0.4768444410129199	4.857574141768943	-7.544252071253911	16.50997121506052	16.50997121505917	3.273700263224003	0.7493477608262959	4.955600333756371	0.5989225366271063	-5.527076233053433e-08	7.806344608393243e-07	5.672587741586518e-08	9.528772426349173e-08	-1.547733028633661e-08	1.010258293097871e-07	7.110387054940331e-08
0.02	-0.1583066633622449	0.05724193902165611	0.8976754395392189	0.38059570932088	-0.2603796790128248	-0.252323099571518	-0.01416738825696513	0.03558997804562451	0.03558997804562519	-0.173868144924409	0.1559208706770637	-0.04130820098342691	-0.01051483088619859	-0.05334498175363545	-0.04347116671604422	-0.02424376527212492	0.307142388458763	-0.009549941101096054	0.09622835734838092	-0.1496636798560869	0.3320982994922094	0.3320982994921975	0.06569090776931591	0.01643325463004929	0.09973842281218261	0.01211426880574215	0.1379727632051156	-0.09453862228826586	-0.04490106222165308	-0.2875114424627691	0.2911758213589878	-0.01611870105834068	-0.08688712716569801	53.8258627127945	-7.073394566217605	6.035810005287022	-11.10814493294054	-574.4726262186226	-88.67593527432307	-38.59769198537659	-2.702266328487946	-2.093390743114285	-1.21782720994135	15.10939999666478	-0.4613890120251689	4.561618755138653	-7.059826218709256	16.30333074152195	16.30333074152315	3.189567892510356	0.9376029599114792	4.926911528551178	0.6085710820164689	-1.050915662518307e-07	8.410369809004046e-07	2.171818740006206e-07	1.637203179652342e-07	-3.177239254760714e-07	1.962803025542477e-08	6.592566390624561e-08
0.03	-0.1589679791482675	0.05670432222493792	0.8973731281276106	0.3844031218882194	-0.2604970633341251	-0.2511327684173328	-0.01601647929598636	0.03970885878239823	0.03970885878242186	-0.1730540373126399	0.1561257589603006	-0.04006959976331827	-0.01036333215463501	-0.07872424885399998	-0.0639091439876139	-0.03622987731436705	0.4534811071673511	-0.01382869441669631	0.1415287211252158	-0.2195478475176479	0.490831121104945	0.4908311211049432	0.09699312858605094	0.02446952453218455	0.147764609907689	0.01822780075431871	0.1300086209111952	-0.08808130618291626	-0.04351985860893816	-0.279653554584807	0.281723400645681	-0.01714427720753212	-0.08034523810428106	50.81677079680075	-6.218159470018766	6.033150315543782	-9.857534140556067	-573.7975144161695	-85.61436365275843	-38.71602494874852	-2.426670428343168	-1.997510901878532	-1.190772007069645	14.26724476462437	-0.3965461129069276	4.467870426062552	-6.861709975659505	15.53123569291972	15.53123569292053	3.080094524111013	0.7254235776452094	4.707899816769667	0.6189360431561363	-1.261902341862318e-07	8.018235667542815e-07	2.662191537675669e-07	2.004825284774708e-07	-5.135370608026296e-07	-3.803441477711176e-09	6.083266615403766e-08
0.04	-0.1598772703107874	0.05596662371896481	0.8969506018344388	0.3896481490339682	-0.2606543207128965	-0.2494987085779516	-0.01854621159878266	0.04538966329967065	0.04538966329967049	-0.1719309984230784	0.1564087668569787	-0.03835725116890951	-0.01014945974521007	-0.1029400570557049	-0.08348750856703016	-0.04828674158484305	0.5946653041426762	-0.01752455259547372	0.1849740943863231	-0.2857919326104464	0.6444830555884951	0.6444830555884982	0.1274771633170185	0.03205717732554649	0.1944878976719727	0.02458900437800935	0.1220444786170751	-0.08162399007757816	-0.04213865499645045	-0.2717956667068933	0.2722709799323503	-0.01816985335673687	-0.07380334904301125	47.94158766713791	-5.373763931127425	6.017824374654817	-8.906883543745659	-571.1586130672006	-82.32309786264028	-38.87538486511916	-2.469574548756287	-1.92146820468334	-1.231977655588121	14.07849565001209	-0.3448099846606761	4.190620651993204	-6.331809704956875	15.28715331568482	15.28715331568495	3.025930675356713	0.8478795381567934	4.666331662306936	0.6581054170392819	-1.466966931312122e-07	7.605562158203809e-07	3.12959140404249e-07	2.365917413981713e-07	-7.07155691802112e-07	-2.603973120422392e-08	5.574142528617918e-08
0.05	-0.1610239400464277	0.05503739454916203	0.8964065204909946	0.3962811475628299	-0.2608457068067605	-0.2474405919012177	-0.02172015235908227	0.05258288218024612	0.05258288218024327	-0.1705077809399685	0.1567664258610446	-0.03618397159235338	-0.009870794947655795	-0.1262236666459506	-0.1022148011103029	-0.06058696797384328	0.7311124428683791	-0.02066326103791486	0.2263480700003152	-0.348468804643341	0.7933190418274282	0.7933190418274104	0.1569669706150107	0.0393515101239482	0.2399345150818242	0.03117111121827338	0.1149079012606774	-0.07892539327152627	-0.0409129506306499	-0.2661542214337382	0.2644335618178613	-0.01590089080908726	-0.06794819003017614	45.71336766929211	-5.958310400419738	6.098771476088721	-8.313593093990816	-568.511313697882	-81.99637727471493	-39.070636103484	-2.232212724001883	-1.826783525834764	-1.237804256761528	13.30452140267405	-0.2851397572374318	4.065588723252148	-6.156513731923182	14.55555836607816	14.55555836607504	2.880763376169281	0.6517365830571111	4.448809510372723	0.6621827418605959	-1.547693464097998e-07	5.52722659565774e-07	3.677441036983022e-07	2.404708328585455e-07	-8.063762605845593e-07	-1.052778003123434e-07	3.25028415179365e-08
0.06	-0.1623983375899279	0.05392520770459024	0.8957376850584192	0.4042539571627145	-0.2610658276816884	-0.2449777749269119	-0.02550503939560476	0.06123920834081353	0.06123920834081448	-0.1687956138600493	0.1571933334795851	-0.03356322929568818	-0.009525525196830824	-0.1484856186299572	-0.1200790435208332	-0.07323755941107643	0.8626275183470742	-0.02327150880842221	0.2659141539003063	-0.4079811878549693	0.9371045115895856	0.9371045115895477	0.1852670826789505	0.0459069002173564	0.2839804416936173	0.03790999503216062	0.1077713239041897	-0.07622679646547735	-0.0396872462647781	-0.2605127761606476	0.2565961437033514	-0.01363192826144641	-0.06209303101739884	43.59835427467229	-6.553846599837463	6.17138677847673	-7.9824078819903	-564.212690818743	-81.47566969765461	-39.29599914569775	-2.265243027508727	-1.748858178134598	-1.302050665234704	13.09208300061045	-0.2387178502739851	3.82904230919305	-5.698911940703763	14.27705002032968	14.2770500203299	2.787991628546129	0.7000909971580702	4.38619350269551	0.6894608117639272	-1.623184710287499e-07	3.378757894029269e-07	4.22867802851613e-07	2.429928665732218e-07	-9.01622174115763e-07	-1.869159443417937e-07	8.500159101256586e-09
0.07000000000000001	-0.1639909973206591	0.05263877911034367	0.8949401464599424	0.4135187757022187	-0.2613091656250794	-0.2421300598782634	-0.02986828219603943	0.07130958713634558	0.07130958713628621	-0.1668062091485837	0.1576838613160069	-0.03050848949086032	-0.009111738886799031	-0.1698683187326249	-0.1370492450057259	-0.08635499357634492	0.9895070756501089	-0.02528148071203049	0.3032863368897656	-0.4641306359462801	1.076141780993272	1.076141780993263	0.2124358647199524	0.05208639228352108	0.3267491519177586	0.04490327468838428	0.1002856025741719	-0.07244876137918785	-0.03848570553078862	-0.2554607620861907	0.24941593768407	-0.01211576716034228	-0.05595612948190655	41.64145749659375	-6.856617531134426	6.204738117006717	-7.720005086805571	-560.28759048985	-80.25843923402789	-39.54496571815903	-2.048067205817715	-1.64743795544159	-1.329496264903475	12.36152081602731	-0.1650412513091365	3.639871034704431	-5.492450800919049	13.59264401368668	13.59264401369102	2.654725548871114	0.5599861633108226	4.189457418776098	0.7125639436550965	-1.597110434529423e-07	-5.052257823418506e-10	4.557683094440556e-07	2.202533963956745e-07	-9.256179405090212e-07	-2.907205423685247e-07	-2.70576865627471e-08
